<?xml version="1.0" encoding="utf-8"?>
<svg xmlns="http://www.w3.org/2000/svg" viewBox="99.481 243.2756 123.416 18.4205" width="123.416px" height="18.4205px"><path d="M 99.481 261.336 L 99.481 244.536 L 110.965 244.536 L 110.965 247.632 L 103.033 247.632 L 103.033 251.232 L 109.753 251.232 L 109.753 254.1 L 103.033 254.1 L 103.033 258.204 L 111.061 258.204 L 111.061 261.336 L 99.481 261.336 L 99.481 261.336 Z M 112.299 261.36 L 116.667 255.324 L 112.527 249.216 L 116.955 249.216 L 119.103 252.9 L 121.191 249.216 L 125.511 249.216 L 121.491 255.252 L 125.823 261.336 L 121.335 261.336 L 118.983 257.64 L 116.595 261.3 L 112.299 261.36 L 112.299 261.36 Z M 132.592 261.696 C 131.296 261.696 130.272 261.332 129.52 260.604 C 128.776 259.868 128.404 258.76 128.404 257.28 L 128.404 245.724 L 131.908 245.724 L 131.908 249.216 L 134.92 249.216 L 134.92 252.024 L 131.908 252.024 L 131.908 256.644 C 131.908 257.356 132.056 257.856 132.352 258.144 C 132.648 258.432 133.044 258.576 133.54 258.576 C 133.796 258.576 134.044 258.548 134.284 258.492 C 134.532 258.428 134.76 258.34 134.968 258.228 L 135.46 260.988 C 135.1 261.188 134.668 261.356 134.164 261.492 C 133.652 261.63 133.123 261.699 132.592 261.696 L 132.592 261.696 Z M 125.944 252.024 L 125.944 249.216 L 128.752 249.216 L 128.752 252.024 L 125.943 252.024 L 125.944 252.024 Z M 143.07 261.696 C 141.75 261.696 140.59 261.428 139.59 260.892 C 138.615 260.379 137.804 259.601 137.25 258.648 C 136.69 257.688 136.41 256.564 136.41 255.276 C 136.41 254.34 136.57 253.48 136.89 252.696 C 137.204 251.934 137.669 251.244 138.258 250.668 C 138.854 250.089 139.56 249.636 140.334 249.336 C 141.134 249.016 142.01 248.856 142.962 248.856 C 144.01 248.856 144.938 249.04 145.746 249.408 C 146.536 249.755 147.231 250.286 147.774 250.956 C 148.31 251.612 148.682 252.384 148.89 253.272 C 149.106 254.16 149.126 255.124 148.95 256.164 L 139.662 256.164 C 139.662 256.724 139.806 257.212 140.094 257.628 C 140.39 258.044 140.802 258.372 141.33 258.612 C 141.866 258.844 142.49 258.96 143.202 258.96 C 143.906 258.96 144.578 258.864 145.218 258.672 C 145.865 258.477 146.476 258.181 147.03 257.796 L 148.194 260.196 C 147.81 260.492 147.33 260.756 146.754 260.988 C 146.178 261.212 145.566 261.384 144.918 261.504 C 144.31 261.628 143.691 261.693 143.07 261.696 L 143.07 261.696 Z M 139.866 253.752 L 145.59 253.752 C 145.566 253.04 145.314 252.476 144.834 252.06 C 144.362 251.644 143.71 251.436 142.878 251.436 C 142.046 251.436 141.354 251.644 140.802 252.06 C 140.258 252.476 139.946 253.04 139.866 253.752 Z M 150.993 261.336 L 150.993 249.216 L 154.497 249.216 L 154.497 250.584 C 154.961 249.976 155.509 249.536 156.141 249.264 C 156.775 248.993 157.457 248.854 158.145 248.856 C 159.273 248.856 160.201 249.08 160.929 249.528 C 161.665 249.968 162.209 250.54 162.561 251.244 C 162.921 251.948 163.101 252.688 163.101 253.464 L 163.101 261.336 L 159.597 261.336 L 159.597 254.556 C 159.597 253.788 159.381 253.176 158.949 252.72 C 158.525 252.264 157.909 252.036 157.101 252.036 C 156.589 252.036 156.137 252.152 155.745 252.384 C 155.353 252.608 155.045 252.924 154.821 253.332 C 154.605 253.74 154.497 254.212 154.497 254.748 L 154.497 261.336 L 150.993 261.336 L 150.993 261.336 Z M 170.283 261.684 C 169.203 261.684 168.207 261.544 167.295 261.264 C 166.383 260.976 165.603 260.584 164.955 260.088 L 166.095 257.64 C 166.729 258.073 167.42 258.416 168.147 258.66 C 168.883 258.9 169.591 259.02 170.271 259.02 C 170.943 259.02 171.459 258.92 171.819 258.72 C 172.187 258.512 172.371 258.216 172.371 257.832 C 172.371 257.488 172.207 257.236 171.879 257.076 C 171.559 256.908 170.935 256.728 170.007 256.536 C 168.407 256.248 167.239 255.796 166.503 255.18 C 165.767 254.556 165.399 253.7 165.399 252.612 C 165.399 251.844 165.611 251.168 166.035 250.584 C 166.467 250 167.059 249.548 167.811 249.228 C 168.563 248.9 169.427 248.736 170.403 248.736 C 171.363 248.736 172.267 248.868 173.115 249.132 C 173.971 249.388 174.703 249.748 175.311 250.212 L 174.207 252.672 C 173.868 252.404 173.497 252.178 173.103 252 C 172.689 251.805 172.254 251.657 171.807 251.556 C 171.376 251.446 170.933 251.389 170.487 251.388 C 169.903 251.388 169.431 251.488 169.071 251.688 C 168.711 251.88 168.531 252.152 168.531 252.504 C 168.531 252.856 168.695 253.116 169.023 253.284 C 169.351 253.452 169.963 253.636 170.859 253.836 C 172.531 254.188 173.719 254.656 174.423 255.24 C 175.135 255.816 175.491 256.628 175.491 257.676 C 175.491 258.484 175.271 259.188 174.831 259.788 C 174.399 260.388 173.791 260.856 173.007 261.192 C 172.231 261.52 171.323 261.684 170.283 261.684 Z M 177.696 261.336 L 177.696 249.216 L 181.2 249.216 L 181.2 261.336 L 177.696 261.336 Z M 179.448 247.296 C 178.895 247.307 178.357 247.115 177.936 246.756 C 177.512 246.388 177.3 245.9 177.3 245.292 C 177.3 244.676 177.512 244.188 177.936 243.828 C 178.354 243.462 178.893 243.265 179.448 243.276 C 180.004 243.265 180.543 243.462 180.96 243.828 C 181.384 244.188 181.596 244.676 181.596 245.292 C 181.596 245.9 181.384 246.388 180.96 246.756 C 180.54 247.115 180.002 247.307 179.448 247.296 Z M 189.81 261.696 C 188.506 261.696 187.35 261.404 186.342 260.82 C 185.362 260.263 184.543 259.461 183.966 258.492 C 183.398 257.516 183.104 256.405 183.114 255.276 C 183.114 254.42 183.278 253.608 183.606 252.84 C 183.93 252.07 184.403 251.373 184.998 250.788 C 185.598 250.188 186.306 249.716 187.122 249.372 C 187.938 249.028 188.834 248.856 189.81 248.856 C 191.114 248.856 192.266 249.148 193.266 249.732 C 194.247 250.289 195.063 251.096 195.63 252.072 C 196.206 253.04 196.494 254.108 196.494 255.276 C 196.494 256.124 196.33 256.936 196.002 257.712 C 195.677 258.484 195.204 259.185 194.61 259.776 C 194.005 260.377 193.287 260.854 192.498 261.18 C 191.682 261.524 190.786 261.696 189.81 261.696 Z M 189.81 258.66 C 190.426 258.66 190.978 258.524 191.466 258.252 C 191.954 257.972 192.338 257.58 192.618 257.076 C 192.898 256.564 193.038 255.964 193.038 255.276 C 193.038 254.58 192.898 253.98 192.618 253.476 C 192.36 252.985 191.963 252.581 191.478 252.312 C 190.99 252.032 190.434 251.892 189.81 251.892 C 189.186 251.892 188.626 252.032 188.13 252.312 C 187.642 252.584 187.258 252.972 186.978 253.476 C 186.706 253.98 186.57 254.58 186.57 255.276 C 186.57 255.972 186.71 256.572 186.99 257.076 C 187.27 257.58 187.654 257.972 188.142 258.252 C 188.63 258.524 189.186 258.66 189.81 258.66 Z M 198.398 261.336 L 198.398 249.216 L 201.902 249.216 L 201.902 250.584 C 202.366 249.976 202.914 249.536 203.546 249.264 C 204.18 248.993 204.862 248.854 205.55 248.856 C 206.678 248.856 207.606 249.08 208.334 249.528 C 209.07 249.968 209.614 250.54 209.966 251.244 C 210.326 251.948 210.506 252.688 210.506 253.464 L 210.506 261.336 L 207.002 261.336 L 207.002 254.556 C 207.002 253.788 206.786 253.176 206.354 252.72 C 205.93 252.264 205.314 252.036 204.506 252.036 C 203.994 252.036 203.542 252.152 203.15 252.384 C 202.758 252.608 202.45 252.924 202.226 253.332 C 202.01 253.74 201.902 254.212 201.902 254.748 L 201.902 261.336 L 198.398 261.336 L 198.398 261.336 Z M 217.689 261.684 C 216.609 261.684 215.613 261.544 214.701 261.264 C 213.789 260.976 213.009 260.584 212.361 260.088 L 213.501 257.64 C 214.135 258.073 214.826 258.416 215.553 258.66 C 216.289 258.9 216.997 259.02 217.677 259.02 C 218.349 259.02 218.865 258.92 219.225 258.72 C 219.593 258.512 219.777 258.216 219.777 257.832 C 219.777 257.488 219.613 257.236 219.285 257.076 C 218.965 256.908 218.341 256.728 217.413 256.536 C 215.813 256.248 214.645 255.796 213.909 255.18 C 213.173 254.556 212.805 253.7 212.805 252.612 C 212.805 251.844 213.017 251.168 213.441 250.584 C 213.873 250 214.465 249.548 215.217 249.228 C 215.969 248.9 216.833 248.736 217.809 248.736 C 218.769 248.736 219.673 248.868 220.521 249.132 C 221.377 249.388 222.109 249.748 222.717 250.212 L 221.613 252.672 C 221.274 252.404 220.903 252.178 220.509 252 C 220.095 251.805 219.66 251.657 219.213 251.556 C 218.782 251.446 218.339 251.389 217.893 251.388 C 217.309 251.388 216.837 251.488 216.477 251.688 C 216.117 251.88 215.937 252.152 215.937 252.504 C 215.937 252.856 216.101 253.116 216.429 253.284 C 216.757 253.452 217.369 253.636 218.265 253.836 C 219.937 254.188 221.125 254.656 221.829 255.24 C 222.541 255.816 222.897 256.628 222.897 257.676 C 222.897 258.484 222.677 259.188 222.237 259.788 C 221.805 260.388 221.197 260.856 220.413 261.192 C 219.637 261.52 218.729 261.684 217.689 261.684 L 217.689 261.684 Z" style="stroke-width: 1; fill: rgb(253, 253, 254);" id="object-0" transform="matrix(1, 0, 0, 1, 0, -1.4210854715202004e-14)"/></svg>